<svg width="729" height="696" viewBox="0 0 729 696" fill="none" xmlns="http://www.w3.org/2000/svg">
<path d="M520.344 26.0035C505.692 1.24712 476.706 0.0933826 476.706 0.0933826C476.706 0.0933826 448.46 -3.51862 430.34 34.1855C413.452 69.3289 390.143 103.261 426.588 111.487L433.171 90.9981L437.248 113.013C442.437 113.386 447.642 113.475 452.841 113.279C491.871 112.019 529.041 113.648 527.844 99.6425C526.253 81.0242 534.441 49.824 520.344 26.0035Z" fill="#2F2E41"/>
<path d="M445.557 663C569.269 663 669.557 657.18 669.557 650C669.557 642.82 569.269 637 445.557 637C321.846 637 221.557 642.82 221.557 650C221.557 657.18 321.846 663 445.557 663Z" fill="#3F3D56"/>
<path d="M253.557 696C393.286 696 506.557 690.18 506.557 683C506.557 675.82 393.286 670 253.557 670C113.829 670 0.557465 675.82 0.557465 683C0.557465 690.18 113.829 696 253.557 696Z" fill="#3F3D56"/>
<path d="M358.819 597.129C359.741 628.687 341.302 640.253 318.161 640.929C317.623 640.944 317.088 640.954 316.555 640.958C315.482 640.966 314.42 640.948 313.367 640.904C292.439 640.035 275.873 628.926 275.015 599.577C274.128 569.204 311.827 529.741 314.656 526.822L314.661 526.819C314.768 526.708 314.823 526.652 314.823 526.652C314.823 526.652 357.898 565.574 358.819 597.129Z" fill="#6C63FF"/>
<path d="M316.495 636.146L331.194 614.286L316.525 638.498L316.555 640.958C315.482 640.966 314.419 640.948 313.367 640.904L314.096 609.285L314.076 609.041L314.103 608.994L314.173 606.006L298.075 582.633L314.154 603.769L314.211 604.401L314.762 580.511L300.857 556.279L314.801 576.315L314.656 526.822L314.656 526.657L314.661 526.819L315.584 565.826L328.256 549.981L315.625 569.186L315.902 590.555L327.563 569.7L315.945 593.697L316.099 605.579L333.057 576.528L316.15 609.724L316.495 636.146Z" fill="#3F3D56"/>
<path d="M645.494 626.902L719.562 516.755L645.646 638.751L645.8 651.146C640.393 651.187 635.038 651.097 629.736 650.876L633.41 491.556L633.309 490.327L633.444 490.089L633.796 475.034L552.683 357.268L633.7 463.767L633.988 466.949L636.763 346.577L566.703 224.48L636.962 325.431L636.229 76.0504L636.23 75.2204L636.254 76.0367L640.905 272.582L704.756 192.745L641.114 289.514L642.508 397.184L701.264 292.102L642.724 413.014L643.499 472.884L728.947 326.506L643.759 493.77L645.494 626.902Z" fill="#3F3D56"/>
<path d="M433.526 260.469C433.526 260.469 416.364 306.465 427.348 347.655C438.331 388.845 467.164 487.014 467.164 487.014L505.608 563.216C505.608 563.216 527.576 578.319 540.62 547.426L505.608 481.522L539.879 362.446C546.392 340.179 547.777 316.727 543.93 293.848C541.976 282.542 538.646 271.23 533.068 262.529C533.068 262.529 443.823 248.799 433.526 260.469Z" fill="#2F2E41"/>
<path d="M469.224 478.776L448.629 585.87C448.629 585.87 469.91 600.973 482.267 596.168L502.862 517.22L469.224 478.776Z" fill="#2F2E41"/>
<path d="M451.375 583.811L429.407 628.433L420.482 646.282C420.482 646.282 371.741 692.964 410.185 688.159C448.629 683.353 451.375 676.488 451.375 676.488L458.927 665.504L460.986 669.623C460.986 669.623 471.97 660.699 471.97 657.953C471.97 655.207 467.851 627.06 467.851 627.06L473.343 594.108L451.375 583.811Z" fill="#2F2E41"/>
<path d="M513.846 562.529L525.517 594.108L518.652 621.568C518.652 621.568 491.878 657.953 519.338 655.893C546.798 653.834 551.604 633.925 551.604 633.925L555.723 620.882L559.155 622.255L569.453 603.719L550.231 572.827L537.187 550.172L513.846 562.529Z" fill="#2F2E41"/>
<path d="M586.615 298.913L590.734 320.195C590.734 320.195 607.897 358.639 590.734 360.012C573.572 361.385 573.572 322.254 573.572 322.254L574.945 306.465L586.615 298.913Z" fill="#FFB8B8"/>
<path d="M290.734 188.387L266.707 184.268C266.707 184.268 219.338 159.554 220.025 177.403C220.711 195.252 264.647 203.49 264.647 203.49L277.691 208.295L290.734 188.387Z" fill="#FFB8B8"/>
<path d="M474.716 88.158C492.157 88.158 506.295 74.0196 506.295 56.579C506.295 39.1384 492.157 25 474.716 25C457.275 25 443.137 39.1384 443.137 56.579C443.137 74.0196 457.275 88.158 474.716 88.158Z" fill="#FFB8B8"/>
<path d="M460.986 77.8605C460.986 77.8605 467.851 103.947 455.494 109.439C443.137 114.931 441.764 119.05 441.764 119.05C441.764 119.05 524.144 145.137 530.322 114.245L502.176 98.4555C502.176 98.4555 499.43 76.4875 496.684 75.1145C493.938 73.7415 460.986 77.8605 460.986 77.8605Z" fill="#FFB8B8"/>
<path d="M559.231 132.561C558.74 130.488 557.466 128.684 555.674 127.531C548.505 122.913 529.848 111.188 527.304 112.551C524.144 114.245 499.91 125.845 451.958 111.121C451.958 111.121 415.677 121.11 405.38 127.975C395.082 134.84 373.557 157 373.557 157C373.557 157 275.871 172.762 276.557 181C277.244 189.238 269.557 209 269.557 209C269.557 209 333.557 222 398.557 195C398.557 195 419.11 242.62 417.05 251.545C414.991 260.469 414.991 266.648 431.466 265.275C447.942 263.902 473.343 259.783 486.387 261.842C499.43 263.902 548.172 267.334 548.172 263.902V242.62C548.172 242.62 563.274 316.762 572.885 316.762C582.496 316.762 597.379 310.968 603.558 289L573.557 193L559.231 132.561Z" fill="#6C63FF"/>
<path opacity="0.2" d="M483.545 335.325L466.59 482.331L469.57 482.674L486.525 335.669L483.545 335.325Z" fill="black"/>
<path d="M513.866 24.746L485.229 9.745L445.682 15.882L437.5 52.02L457.867 51.236L463.557 37.96V51.017L472.956 50.656L478.41 29.519L481.82 52.02L515.23 51.338L513.866 24.746Z" fill="#2F2E41"/>
<path d="M208.983 124.505C207.863 123.379 206.531 122.484 205.065 121.873C203.598 121.263 202.025 120.947 200.437 120.945C198.848 120.943 197.274 121.254 195.806 121.861C194.338 122.468 193.004 123.359 191.881 124.482C190.757 125.605 189.867 126.939 189.26 128.408C188.653 129.876 188.341 131.449 188.343 133.038C188.346 134.627 188.661 136.199 189.272 137.666C189.883 139.133 190.777 140.464 191.904 141.585L208.983 158.664L226.063 141.585C228.318 139.318 229.582 136.249 229.578 133.051C229.574 129.854 228.302 126.788 226.041 124.527C223.779 122.266 220.714 120.994 217.516 120.99C214.319 120.986 211.25 122.25 208.983 124.505V124.505Z" fill="#FF6584"/>
<path d="M253.983 64.5051C252.863 63.3787 251.531 62.4844 250.065 61.8735C248.598 61.2625 247.025 60.9469 245.437 60.9448C243.848 60.9426 242.274 61.254 240.806 61.861C239.338 62.468 238.004 63.3587 236.881 64.4821C235.757 65.6054 234.867 66.9395 234.26 68.4076C233.653 69.8758 233.341 71.4494 233.343 73.0381C233.346 74.6268 233.661 76.1995 234.272 77.666C234.883 79.1326 235.777 80.4642 236.904 81.5845L253.983 98.6639L271.063 81.5845C273.318 79.3176 274.582 76.2489 274.578 73.0513C274.574 69.8537 273.302 66.7883 271.041 64.5272C268.779 62.2662 265.714 60.9941 262.516 60.9899C259.319 60.9858 256.25 62.2499 253.983 64.5051V64.5051Z" fill="#FF6584"/>
<path d="M187.983 8.50513C186.337 6.85675 184.382 5.54894 182.23 4.6564C180.078 3.76387 177.771 3.30411 175.441 3.30341C173.112 3.3027 170.804 3.76106 168.652 4.65228C166.499 5.54351 164.544 6.85014 162.896 8.49752C161.249 10.1449 159.942 12.1007 159.051 14.2533C158.16 16.4058 157.701 18.7129 157.702 21.0426C157.703 23.3723 158.163 25.6791 159.055 27.8311C159.948 29.9831 161.255 31.9381 162.904 33.5845L187.983 58.6639L213.063 33.5845C214.711 31.9381 216.019 29.9831 216.911 27.8311C217.804 25.6791 218.264 23.3723 218.264 21.0426C218.265 18.7129 217.807 16.4058 216.915 14.2533C216.024 12.1007 214.718 10.1449 213.07 8.49752C211.423 6.85014 209.467 5.54351 207.314 4.65228C205.162 3.76106 202.855 3.3027 200.525 3.30341C198.195 3.30411 195.889 3.76387 193.737 4.6564C191.585 5.54894 189.63 6.85675 187.983 8.50513Z" fill="#FF6584"/>
</svg>
